# xmcd
#
# Track frame offsets: 
#        150
#        15804
#        36273
#        56675
#        75087
#        91894
#        110612
#        127656
#        147432
#        166323
#        187722
#        209820
#        229549
#        246716
#
# Disc length: 3578 seconds
#
# Revision: 0
# Processed by: cddbd v1.5.2PL0 Copyright (c) Steve Scherf et al.
# Submitted via: ExactAudioCopy v1.0b1
#
DISCID=ad0df80e
DTITLE=Brad Paisley - Hits Alive cd1
DYEAR=2010
DGENRE=Country
TTITLE0=Mud on The Tires
TTITLE1=Ticks
TTITLE2=Anything Like Me
TTITLE3=The World
TTITLE4=Little Moments
TTITLE5=When I Get Where I'm Going
TTITLE6=Celebrity
TTITLE7=Then (Piano Mix)
TTITLE8=I'm Still a Guy
TTITLE9=He Didn't Have to Be
TTITLE10=Alcohol
TTITLE11=Whiskey Lullaby
TTITLE12=We Danced
TTITLE13=Online
EXTD=
EXTT0=
EXTT1=
EXTT2=
EXTT3=
EXTT4=
EXTT5=
EXTT6=
EXTT7=
EXTT8=
EXTT9=
EXTT10=
EXTT11=
EXTT12=
EXTT13=
PLAYORDER=
